<svg width="16" height="17" viewBox="0 0 16 17" fill="none" xmlns="http://www.w3.org/2000/svg">
<path d="M13.8279 9.19665C13.3761 9.31664 12.9107 9.37737 12.4433 9.37732C11.0199 9.37732 9.68326 8.82399 8.67926 7.81999C8.01995 7.15689 7.54597 6.33256 7.30453 5.42918C7.0631 4.5258 7.06266 3.57492 7.30326 2.67132C7.3333 2.55834 7.33311 2.43945 7.3027 2.32657C7.27229 2.21369 7.21273 2.11079 7.13 2.02819C7.04727 1.94559 6.94427 1.8862 6.83134 1.85598C6.71841 1.82575 6.59952 1.82576 6.48659 1.85599C5.35536 2.15744 4.3233 2.75107 3.49392 3.57732C0.895255 6.17599 0.895255 10.406 3.49392 13.006C4.11161 13.6271 4.84635 14.1196 5.65561 14.4549C6.46488 14.7902 7.33261 14.9616 8.20859 14.9593C9.08433 14.9618 9.95186 14.7905 10.7609 14.4553C11.57 14.1201 12.3045 13.6277 12.9219 13.0067C13.7488 12.1771 14.3427 11.1445 14.6439 10.0127C14.6738 9.89972 14.6736 9.78092 14.6432 9.66811C14.6128 9.55531 14.5533 9.45246 14.4707 9.36985C14.3881 9.28724 14.2853 9.22777 14.1725 9.19737C14.0597 9.16698 13.9409 9.16673 13.8279 9.19665ZM11.9799 12.064C11.4859 12.5607 10.8983 12.9545 10.251 13.2227C9.6038 13.4908 8.90982 13.6279 8.20926 13.626C7.50845 13.6277 6.81425 13.4905 6.16681 13.2223C5.51936 12.9541 4.93151 12.5602 4.43726 12.0633C2.35859 9.98399 2.35859 6.59999 4.43726 4.52066C4.83893 4.11944 5.30265 3.7856 5.81059 3.53199C5.73624 4.49136 5.86989 5.45548 6.20241 6.35845C6.53492 7.26142 7.05847 8.08196 7.73726 8.76399C8.41779 9.44491 9.23809 9.9699 10.1414 10.3027C11.0448 10.6354 12.0096 10.768 12.9693 10.6913C12.7143 11.1984 12.3803 11.6617 11.9799 12.064Z" fill="#20AC9D"/>
</svg>
