<svg width="3" height="14" viewBox="0 0 3 14" fill="none" xmlns="http://www.w3.org/2000/svg">
<path d="M0 12C0 11.6685 0.131696 11.3505 0.366117 11.1161C0.600537 10.8817 0.918479 10.75 1.25 10.75C1.58152 10.75 1.89946 10.8817 2.13388 11.1161C2.3683 11.3505 2.5 11.6685 2.5 12C2.5 12.3315 2.3683 12.6495 2.13388 12.8839C1.89946 13.1183 1.58152 13.25 1.25 13.25C0.918479 13.25 0.600537 13.1183 0.366117 12.8839C0.131696 12.6495 0 12.3315 0 12ZM0 7C0 6.66848 0.131696 6.35054 0.366117 6.11612C0.600537 5.8817 0.918479 5.75 1.25 5.75C1.58152 5.75 1.89946 5.8817 2.13388 6.11612C2.3683 6.35054 2.5 6.66848 2.5 7C2.5 7.33152 2.3683 7.64946 2.13388 7.88388C1.89946 8.1183 1.58152 8.25 1.25 8.25C0.918479 8.25 0.600537 8.1183 0.366117 7.88388C0.131696 7.64946 0 7.33152 0 7ZM0 2C0 1.66848 0.131696 1.35054 0.366117 1.11612C0.600537 0.881696 0.918479 0.75 1.25 0.75C1.58152 0.75 1.89946 0.881696 2.13388 1.11612C2.3683 1.35054 2.5 1.66848 2.5 2C2.5 2.33152 2.3683 2.64946 2.13388 2.88388C1.89946 3.1183 1.58152 3.25 1.25 3.25C0.918479 3.25 0.600537 3.1183 0.366117 2.88388C0.131696 2.64946 0 2.33152 0 2Z" fill="black"/>
</svg>
