<svg width="16" height="16" viewBox="0 0 16 16" fill="none" xmlns="http://www.w3.org/2000/svg">
<path d="M4.6665 4.66669H3.99984C3.64622 4.66669 3.30708 4.80716 3.05703 5.05721C2.80698 5.30726 2.6665 5.6464 2.6665 6.00002V12C2.6665 12.3536 2.80698 12.6928 3.05703 12.9428C3.30708 13.1929 3.64622 13.3334 3.99984 13.3334H9.99984C10.3535 13.3334 10.6926 13.1929 10.9426 12.9428C11.1927 12.6928 11.3332 12.3536 11.3332 12V11.3334" stroke="#F4F6F8" stroke-width="1.33333" stroke-linecap="round" stroke-linejoin="round"/>
<path d="M10.6667 3.33334L12.6667 5.33334M13.59 4.39001C13.8526 4.12745 14.0001 3.77133 14.0001 3.40001C14.0001 3.02869 13.8526 2.67257 13.59 2.41001C13.3274 2.14745 12.9713 1.99994 12.6 1.99994C12.2287 1.99994 11.8726 2.14745 11.61 2.41001L6 8.00001V10H8L13.59 4.39001Z" stroke="#F4F6F8" stroke-width="1.33333" stroke-linecap="round" stroke-linejoin="round"/>
</svg>
