<svg width="16" height="16" viewBox="0 0 16 16" fill="none" xmlns="http://www.w3.org/2000/svg">
<path d="M4.662 7.99999C4.662 9.84066 6.15933 11.338 8 11.338C9.84067 11.338 11.338 9.84066 11.338 7.99999C11.338 6.15933 9.84067 4.66199 8 4.66199C6.15933 4.66199 4.662 6.15933 4.662 7.99999ZM8 5.99533C9.10533 5.99533 10.0047 6.89466 10.0047 7.99999C10.0047 9.10533 9.10533 10.0047 8 10.0047C6.89467 10.0047 5.99533 9.10533 5.99533 7.99999C5.99533 6.89466 6.89467 5.99533 8 5.99533ZM7.332 12.6667H8.66533V14.6667H7.332V12.6667ZM7.332 1.33333H8.66533V3.33333H7.332V1.33333ZM1.332 7.33333H3.332V8.66666H1.332V7.33333ZM12.6653 7.33333H14.6653V8.66666H12.6653V7.33333ZM2.81267 12.242L4.226 10.8273L5.16933 11.77L3.756 13.1847L2.81267 12.242ZM10.8267 4.22933L12.2413 2.81466L13.184 3.75733L11.7693 5.17199L10.8267 4.22933ZM4.228 5.17266L2.81333 3.75799L3.75667 2.81533L5.17 4.22999L4.228 5.17266ZM13.184 12.2427L12.2413 13.1853L10.8267 11.7707L11.7693 10.828L13.184 12.2427Z" fill="#20AC9D"/>
</svg>
