<svg width="36" height="36" viewBox="0 0 36 36" fill="none" xmlns="http://www.w3.org/2000/svg">
<mask id="mask0_66_1665" style="mask-type:luminance" maskUnits="userSpaceOnUse" x="2" y="5" width="32" height="26">
<path d="M31.5 6H4.5C3.67157 6 3 6.67157 3 7.5V28.5C3 29.3284 3.67157 30 4.5 30H31.5C32.3284 30 33 29.3284 33 28.5V7.5C33 6.67157 32.3284 6 31.5 6Z" fill="white"/>
<path fill-rule="evenodd" clip-rule="evenodd" d="M4.5 7C4.22386 7 4 7.22386 4 7.5V28.5C4 28.7761 4.22386 29 4.5 29H31.5C31.7761 29 32 28.7761 32 28.5V7.5C32 7.22386 31.7761 7 31.5 7H4.5ZM2 7.5C2 6.11929 3.11929 5 4.5 5H31.5C32.8807 5 34 6.11929 34 7.5V28.5C34 29.8807 32.8807 31 31.5 31H4.5C3.11929 31 2 29.8807 2 28.5V7.5Z" fill="white"/>
<path fill-rule="evenodd" clip-rule="evenodd" d="M8.24076 12.8492C8.60018 12.4299 9.23148 12.3813 9.65081 12.7408L14.9008 17.2408C15.1225 17.4307 15.25 17.7081 15.25 18C15.25 18.2919 15.1225 18.5693 14.9008 18.7593L9.65081 23.2593C9.23148 23.6187 8.60018 23.5701 8.24076 23.1508C7.88134 22.7315 7.9299 22.1002 8.34923 21.7408L12.7134 18L8.34923 14.2593C7.9299 13.8999 7.88134 13.2686 8.24076 12.8492ZM16.25 24C16.25 23.4477 16.6977 23 17.25 23H27C27.5523 23 28 23.4477 28 24C28 24.5523 27.5523 25 27 25H17.25C16.6977 25 16.25 24.5523 16.25 24Z" fill="black"/>
</mask>
<g mask="url(#mask0_66_1665)">
<path d="M0 0H36V36H0V0Z" fill="black"/>
</g>
</svg>
